<?xml version="1.0" standalone="no"?>
<!DOCTYPE svg PUBLIC "-//W3C//DTD SVG 20010904//EN"
 "http://www.w3.org/TR/2001/REC-SVG-20010904/DTD/svg10.dtd">
<svg version="1.0" xmlns="http://www.w3.org/2000/svg"
 width="634.000000pt" height="634.000000pt" viewBox="0 0 634.000000 634.000000"
 preserveAspectRatio="xMidYMid meet">
<metadata>
Created by potrace 1.11, written by Peter Selinger 2001-2013
</metadata>
<g transform="translate(0.000000,634.000000) scale(0.100000,-0.100000)"
fill="#000000" stroke="none">
<path d="M2921 6205 c-129 -74 -240 -135 -247 -135 -8 0 -14 -4 -14 -9 0 -5
-10 -13 -22 -17 -28 -8 -368 -203 -386 -221 -7 -7 -19 -13 -27 -13 -7 0 -15
-4 -17 -8 -1 -4 -338 -201 -748 -437 -410 -236 -751 -435 -758 -442 -7 -7 -19
-13 -26 -13 -7 0 -23 -9 -36 -20 -13 -11 -29 -20 -36 -20 -7 0 -14 -4 -16 -8
-4 -10 -146 -92 -159 -92 -5 0 -8 -633 -7 -1591 l3 -1591 135 -78 c74 -43 140
-82 145 -87 6 -4 23 -15 38 -23 15 -8 224 -129 464 -269 241 -139 444 -254
452 -256 8 -1 17 -7 19 -13 2 -7 8 -10 13 -6 5 3 9 0 9 -6 0 -6 4 -9 10 -5 5
3 18 -2 28 -12 10 -10 25 -19 32 -21 19 -4 152 -83 168 -99 7 -7 20 -13 27
-13 7 0 20 -6 27 -13 7 -7 275 -164 596 -349 l583 -336 237 136 c130 75 239
139 242 143 3 3 15 9 28 13 12 4 22 11 22 15 0 5 15 14 33 22 17 7 34 16 37
19 7 9 739 430 752 433 6 1 20 10 30 20 10 10 23 15 28 12 6 -4 10 -1 10 6 0
7 3 9 7 6 3 -4 11 0 17 8 6 9 21 17 34 20 12 2 29 11 38 19 8 9 21 16 29 16 7
0 15 4 17 9 2 4 269 161 593 349 l590 340 3 1587 c2 1652 3 1604 -37 1613 -18
4 -813 463 -829 479 -7 7 -20 13 -27 13 -7 0 -20 6 -27 13 -12 12 -1288 750
-1412 817 -33 17 -137 76 -231 131 -94 54 -178 99 -186 99 -8 -1 -119 -61
-248 -135z m329 -1507 c13 -29 37 -91 55 -138 18 -47 105 -274 195 -505 90
-231 172 -444 183 -472 17 -45 24 -53 46 -54 22 -1 23 -2 6 -7 -11 -4 -21 -16
-23 -27 -1 -11 59 -184 134 -385 171 -459 178 -481 200 -618 17 -108 17 -119
1 -213 -64 -376 -358 -642 -750 -679 -178 -17 -329 10 -492 90 -219 106 -394
307 -441 506 -23 100 -15 279 20 404 14 52 88 263 166 468 77 206 140 379 140
386 0 6 -17 20 -37 31 l-37 20 50 6 49 6 -65 3 -65 3 65 6 64 6 52 130 c28 72
109 281 179 465 120 316 212 547 237 598 19 38 43 27 68 -30z"/>
</g>
</svg>
